<svg width="337" height="91" viewBox="0 0 337 91" fill="none" xmlns="http://www.w3.org/2000/svg">
<path fill-rule="evenodd" clip-rule="evenodd" d="M146.824 71.9991C141.452 71.9991 137.34 70.4658 134.489 67.3992C131.637 64.3325 130.211 59.9993 130.211 54.3993V26.1278C131.461 23.9355 132.086 21.5409 132.086 18.9438C132.086 16.6348 131.628 14.4202 130.711 12.3001C131.353 9.18482 132.612 6.61809 134.489 4.59994C135.318 3.7087 136.253 2.94696 137.294 2.31474C137.597 2.20181 137.902 2.09288 138.209 1.98797C138.782 1.77198 139.642 1.59198 140.788 1.44798C141.432 1.44798 141.754 1.33998 141.754 1.12399C141.799 0.899305 141.635 0.744739 141.261 0.660287C142.934 0.220096 144.788 0 146.824 0C152.195 0 156.307 1.53331 159.158 4.59994C162.01 7.66657 163.436 11.9999 163.436 17.5998V54.3993C163.436 59.9993 162.01 64.3325 159.158 67.3992C156.307 70.4658 152.195 71.9991 146.824 71.9991ZM137.294 2.31474C138.479 1.59577 139.801 1.04428 141.261 0.660287C141.036 0.609427 140.735 0.583995 140.358 0.583995C136.634 0.583995 132.086 2.52797 126.714 6.41592C122.202 2.38397 115.756 0.259997 107.376 0.0440027C98.71 -0.171996 90.0797 1.41198 81.4851 4.79594C72.9622 8.1079 65.621 12.8238 59.4616 18.9438C54.0184 24.3437 49.6853 30.7516 46.4623 38.1675C43.2394 45.5834 41.4488 53.1073 41.0907 60.7392C40.9475 63.6912 41.0907 66.4272 41.5204 68.9471C39.8799 68.6797 38.4041 68.5226 37.0929 68.476L26.1617 0.999987H11.34L0 70.9991H10.1463L12.1358 57.2993H24.5701V57.0993L26.5596 70.9991H28.611C28.5008 71.2352 28.4351 71.4872 28.4137 71.7551C28.3421 72.4751 28.9151 72.9791 30.1327 73.2671C30.9205 73.4111 31.78 73.4831 32.711 73.4831C35.5043 73.4111 38.6914 72.9791 42.2725 72.1871C43.9198 78.523 47.3218 83.347 52.4785 86.6589C57.3487 89.7549 63.1501 91.1949 69.8825 90.9789C72.3892 90.9069 75.0034 90.4029 77.725 89.4669C79.0142 89.0349 80.4466 88.3869 82.0223 87.5229C84.3142 86.2269 85.0662 85.2189 84.2783 84.4989C84.1351 84.355 83.5263 84.6789 82.452 85.4709C79.0142 87.9189 74.9318 89.2509 70.2048 89.4669C63.7589 89.7549 58.2798 88.4589 53.7677 85.5789C48.9691 82.483 45.7103 77.911 43.9914 71.8631C46.8562 72.4391 48.8258 72.8711 49.9001 73.1591C59.2109 75.3191 68.3426 76.3271 77.2953 76.1831C84.6723 76.1111 91.5479 74.7791 97.9222 72.1871C109.453 67.5072 115.219 60.8832 115.219 52.3153C115.219 46.4834 112.569 41.9835 107.269 38.8155C111.136 38.3115 115.075 37.1235 119.086 35.2516C124.462 32.7505 128.17 29.7093 130.211 26.1278V17.5998C130.211 15.6852 130.378 13.9186 130.711 12.3001C130.028 10.7181 129.089 9.18872 127.896 7.7119C130.726 5.39593 133.859 3.59688 137.294 2.31474ZM28.611 70.9991C29.2411 69.6495 31.324 68.8216 34.8597 68.5151C35.5417 68.4603 36.2862 68.4472 37.0929 68.476L37.5017 70.9991H28.611ZM146.824 61.9992C150.604 61.9992 152.494 59.6993 152.494 55.0993V16.8998C152.494 12.2998 150.604 9.99988 146.824 9.99988C143.044 9.99988 141.154 12.2998 141.154 16.8998V55.0993C141.154 59.6993 143.044 61.9992 146.824 61.9992ZM183.767 71.9991C178.462 71.9991 174.417 70.4991 171.631 67.4992C168.846 64.4325 167.454 60.0659 167.454 54.3993V0.999987H178.396V55.1993C178.396 57.5993 178.86 59.3326 179.788 60.3993C180.783 61.4659 182.176 61.9992 183.966 61.9992C185.757 61.9992 187.116 61.4659 188.045 60.3993C189.039 59.3326 189.537 57.5993 189.537 55.1993V0.999987H200.081V54.3993C200.081 60.0659 198.688 64.4325 195.903 67.4992C193.118 70.4991 189.073 71.9991 183.767 71.9991ZM213.445 10.9999H202.005V0.999987H235.826V10.9999H224.387V70.9991H213.445V10.9999ZM23.2769 47.7994L18.4027 13.1998H18.2037L13.429 47.7994H23.2769ZM112.64 22.5077C117.725 16.7478 122.417 12.1398 126.714 8.68389C128.075 10.6279 128.755 12.9318 128.755 15.5958C128.755 19.0518 127.502 22.5437 124.995 26.0717C120.053 33.1276 113.643 37.0155 105.765 37.7355C103.831 36.4395 102.363 35.8996 101.36 36.1155C107.448 28.6996 111.208 24.1637 112.64 22.5077ZM107.376 1.66398C114.896 1.73598 120.913 3.60796 125.425 7.27991C117.546 12.3198 106.23 22.8317 91.4763 38.8155C82.452 48.6074 75.2899 55.5553 69.9899 59.6593C63.4724 64.6992 56.8116 67.9032 50.0076 69.2711C47.5724 69.7751 45.388 69.7751 43.4542 69.2711C42.9529 66.8232 42.7738 63.9792 42.9171 60.7392C43.4184 46.7714 50.0434 33.5236 62.792 20.9957C76.1135 7.8919 90.9749 1.44798 107.376 1.66398ZM104.261 38.9235C108.415 40.6515 110.492 44.1435 110.492 49.3994C110.492 53.7193 108.844 57.8593 105.55 61.8192C102.757 65.2032 99.2114 67.9752 94.9141 70.1351C89.4709 72.9431 83.777 74.3831 77.8324 74.4551C68.5933 74.5271 59.4258 73.5911 50.3299 71.6471C48.8974 71.3591 47.8947 71.1431 47.3218 70.9991C64.4393 69.2711 81.5926 58.6873 98.7817 39.2475C99.283 38.7435 99.8202 38.0595 100.393 37.1955C100.393 37.7715 100.859 38.2395 101.79 38.5995C102.792 38.9595 103.616 39.0675 104.261 38.9235Z" fill="#252525"/>
<path d="M256.616 1.19998H272.234L279.197 51.2994H279.396L286.359 1.19998H301.977V71.1991H291.631V18.1998H291.432L283.474 71.1991H274.323L266.365 18.1998H266.166V71.1991H256.616V1.19998Z" fill="#252525"/>
<path d="M307.158 1.19998H337V11.1999H318.1V29.6996H333.121V39.6995H318.1V61.1992H337V71.1991H307.158V1.19998Z" fill="#252525"/>
</svg>
