<svg width="305" height="43" viewBox="0 0 305 43" fill="none" xmlns="http://www.w3.org/2000/svg">
<path fill-rule="evenodd" clip-rule="evenodd" d="M73.5947 5.79524C73.8839 5.90357 74.0828 5.84941 74.1913 5.63276C74.1913 5.48833 73.9743 5.3439 73.5405 5.19947C71.67 4.58611 70.1983 4.12344 69.1255 3.81146V1.40017H74.6492V31.4897H83.7383V36.5046H69.1255V6.04196C69.8864 5.72445 70.5627 5.53389 71.1542 5.47028C71.9496 5.39806 72.7631 5.50638 73.5947 5.79524ZM69.1255 5.42221V6.04196C66.8629 6.98596 63.8513 9.05211 60.0906 12.2404C51.8833 19.2092 45.5922 26.3584 41.2174 33.6882C39.518 36.5046 38.4695 37.8587 38.0718 37.7503C37.6741 37.642 37.4753 37.317 37.4753 36.7754C37.4753 35.295 39.1746 32.1898 42.5732 27.4597C43.2601 26.0515 43.6036 24.7336 43.6036 23.5059C43.6036 22.3505 43.2963 21.2853 42.6817 20.3104C42.2116 20.7437 41.362 21.5561 40.1327 22.7477C27.876 34.9159 17.2643 41 8.2977 41C2.7659 41 0 38.7613 0 34.284C0 31.3593 1.22929 28.3624 3.68787 25.2933C5.71258 22.7296 8.20732 20.5451 11.1721 18.7398C15.2577 16.2483 20.1387 14.6957 25.8151 14.0819C24.6943 13.2875 24.2242 12.1321 24.405 10.6156C24.7666 7.2937 27.0986 4.63981 31.4011 2.6539C35.2336 0.884633 39.6627 0 44.6883 0C49.3162 0 53.8176 0.397182 58.1924 1.19155C60.3979 1.58873 63.7604 2.38309 68.2798 3.57464C68.527 3.64045 68.8088 3.7194 69.1255 3.81146V4.42782C68.8983 4.38121 68.6525 4.33151 68.3883 4.27873C63.9411 3.44826 60.7414 2.90665 58.789 2.6539C54.7395 2.14839 50.0212 1.89564 44.6341 1.89564C40.6569 1.89564 36.8245 2.50947 33.1366 3.73712C28.111 5.39806 25.4354 7.78115 25.1101 10.8864C24.9654 12.2946 25.4897 13.3236 26.6828 13.9736C27.2613 13.9014 27.7675 13.8653 28.2014 13.8653C34.4563 13.7569 39.0661 15.2373 42.0309 18.3065C48.5389 12.9987 54.848 9.22545 60.9583 6.98679C64.0726 5.83935 66.795 5.1212 69.1255 4.83232V5.41787C67.2844 5.56588 64.8874 6.23329 61.9345 7.42008C55.8604 9.87539 49.6235 14.0097 43.224 19.823C43.9833 21.0145 44.3629 22.2602 44.3629 23.5601C44.3629 24.21 44.2725 24.86 44.0917 25.5099C45.4295 23.7767 46.9299 22.0616 48.5931 20.3646C56.8975 11.8909 63.7416 6.91015 69.1255 5.42221ZM69.1255 5.42221V5.41787C69.1328 5.41728 69.1402 5.41669 69.1475 5.41612C69.1402 5.41814 69.1328 5.42017 69.1255 5.42221ZM69.1255 4.83232C69.5817 4.77577 70.0229 4.73567 70.4492 4.71202C70.1165 4.63537 69.6753 4.54064 69.1255 4.42782V4.83232ZM28.2556 14.8943C34.1489 14.6777 38.5599 15.9775 41.4885 18.7939C40.0423 19.9133 38.5961 21.159 37.1499 22.531C30.5334 28.6693 25.1281 33.0744 20.9341 35.7464C16.1254 38.8155 11.8229 40.3501 8.02654 40.3501C3.29016 40.3501 0.921967 38.3642 0.921967 34.3923C0.921967 29.7706 4.73638 25.0586 12.3652 20.2563C14.5345 18.8842 17.0835 17.6926 20.0121 16.6816C23.1576 15.5623 25.9055 14.9665 28.2556 14.8943ZM93.317 1.40017H84.8807V36.5046H93.317C96.0622 36.5046 98.121 35.7691 99.4936 34.2981C100.866 32.827 101.552 30.6706 101.552 27.8288V10.076C101.552 7.23419 100.866 5.07778 99.4936 3.60673C98.121 2.13569 96.0622 1.40017 93.317 1.40017ZM95.2755 30.6873C94.8068 31.2222 94.1205 31.4897 93.2166 31.4897H90.4045V6.41509H93.2166C94.1205 6.41509 94.8068 6.68255 95.2755 7.21747C95.7776 7.7524 96.0287 8.62166 96.0287 9.82524V28.0796C96.0287 29.2831 95.7776 30.1524 95.2755 30.6873ZM111.96 1.40017H103.775V36.5046H109.298V21.4599H111.207C112.479 21.4599 113.366 21.7775 113.868 22.4127C114.404 23.0479 114.671 24.1679 114.671 25.7727V32.1918C114.671 33.4957 114.705 34.3984 114.772 34.8998C114.839 35.4013 114.973 35.9363 115.174 36.5046H120.798C120.53 35.9028 120.363 35.301 120.296 34.6993C120.229 34.064 120.195 33.2449 120.195 32.2419V26.0736C120.195 24.0008 119.911 22.3458 119.342 21.1088C118.806 19.8718 117.869 19.0527 116.529 18.6515V18.5512C118.94 17.5816 120.145 15.2748 120.145 11.6306V9.47419C120.145 6.7327 119.492 4.71001 118.187 3.40614C116.881 2.06882 114.805 1.40017 111.96 1.40017ZM113.768 15.5924C113.232 16.1608 112.412 16.4449 111.307 16.4449H109.298V6.41509H111.809C112.78 6.41509 113.483 6.69927 113.918 7.26763C114.387 7.83598 114.621 8.75539 114.621 10.0258V12.7339C114.621 14.0712 114.337 15.024 113.768 15.5924ZM128.045 1.40017H122.521V36.5046H128.045V1.40017ZM137.605 1.40017H130.675V36.5046H135.597V10.8784H135.697L142.326 36.5046H148V1.40017H143.079V22.4127H142.978L137.605 1.40017Z" fill="#252525"/>
<path fill-rule="evenodd" clip-rule="evenodd" d="M283.256 2.10658C283.582 2.10658 283.744 2.05125 283.744 1.94059C283.781 1.75616 283.545 1.6455 283.039 1.60862C282.605 1.60862 282.117 1.68239 281.574 1.82993C280.833 2.04592 280.095 2.31999 279.36 2.65214V1.54509H284.886V37.4063H279.36V3.55481C280.179 3.08947 281.043 2.69894 281.954 2.38322C282.243 2.27256 282.677 2.18035 283.256 2.10658ZM226.849 36.1758C224.915 36.4004 224.004 37.0134 224.116 38.0149C224.153 38.4575 224.804 38.6788 226.07 38.6788C227.299 38.6788 228.945 38.4206 231.007 37.9042C232.345 37.5723 233.322 37.3509 233.937 37.2403C235.348 40.892 238.259 42.81 242.672 42.9945C244.951 43.0682 247.121 42.4043 249.183 41.0026C251.281 39.601 252.529 37.7936 252.927 35.5804V34.5845C252.854 34.5476 252.746 34.6398 252.601 34.8612C251.263 36.8161 248.857 37.7198 245.385 37.5723C243.287 37.4985 240.484 37.185 236.975 36.6317C245.729 35.6726 254.554 30.0107 263.452 19.6458C265.912 16.658 267.757 14.408 268.987 12.8957C271.482 9.9448 273.978 7.51034 276.474 5.59228C277.089 6.36688 277.396 7.43657 277.396 8.80135C277.396 10.4612 276.836 12.1211 275.714 13.7809C273.002 17.8384 270.017 19.738 266.762 19.4798C266.437 19.1478 266.093 18.9265 265.731 18.8158C264.899 18.5945 264.483 18.7605 264.483 19.3138C264.483 19.6827 264.827 19.9224 265.514 20.0331C262.548 26.6725 261.065 31.4308 261.065 34.3079C261.065 36.9268 262.096 38.2362 264.158 38.2362C265.605 38.2362 267.015 37.4616 268.39 35.9124C268.607 35.6911 268.661 35.5251 268.553 35.4144C268.516 35.3776 268.48 35.3591 268.444 35.3591C268.335 35.3591 268.227 35.4329 268.118 35.5804C267.287 36.4288 266.527 36.853 265.84 36.853C264.682 36.853 264.103 35.8017 264.103 33.6993C264.103 32.2976 264.321 30.5271 264.755 28.3877C265.333 25.5475 266.039 22.7811 266.871 20.0884C268.896 20.1253 270.904 19.6642 272.893 18.7052C276.836 16.7871 278.807 14.0391 278.807 10.4612C278.807 8.32183 278.228 6.55131 277.071 5.14965C277.789 4.5453 278.552 4.01368 279.36 3.55481V2.65214C278.337 3.1141 277.321 3.6884 276.311 4.37505C274.394 2.53076 271.519 1.44263 267.684 1.11066C266.816 1.03689 265.93 1 265.026 1C256.707 1 249.273 4.06152 242.726 10.1846C239.797 12.9141 237.464 16.1047 235.727 19.7564C233.883 23.5925 232.96 27.4287 232.96 31.2648C232.96 33.1091 233.195 34.7505 233.666 36.189C233.2 36.1737 232.76 36.16 232.347 36.1478L226.821 1.54509H219.336L213.609 37.4063H218.733L219.738 30.3877H226.018V30.2853L226.849 36.1758ZM226.849 36.1758C227.408 36.1109 228.052 36.0784 228.782 36.0784C229.585 36.0784 230.773 36.1015 232.347 36.1478L232.548 37.4063H227.022L226.849 36.1758ZM265.677 1.94059C270.198 1.94059 273.58 2.88118 275.823 4.76235C271.844 7.34436 266.617 12.1948 260.143 19.3138C255.187 24.7729 250.901 28.7934 247.284 31.3754C242.69 34.6583 238.422 36.2997 234.479 36.2997C234.009 34.8612 233.774 33.4042 233.774 31.9287C233.774 28.5352 234.95 24.736 237.301 20.531C239.326 16.9162 241.768 13.7625 244.625 11.0698C247.483 8.37716 250.738 6.21934 254.392 4.59636C258.262 2.82585 262.024 1.94059 265.677 1.94059ZM245.548 38.6788C248.369 38.7526 250.648 37.8305 252.384 35.9124C251.842 37.7936 250.594 39.3428 248.64 40.56C246.687 41.8141 244.734 42.4043 242.781 42.3305C238.766 42.1461 236.089 40.394 234.751 37.0743C235.438 37.0005 235.872 36.9821 236.053 37.019C241.117 38.0887 244.282 38.6419 245.548 38.6788ZM169.239 37.9186C166.56 37.9186 164.517 37.1501 163.11 35.6132C161.703 34.0422 161 31.8051 161 28.9021V10.0493C161 7.14627 161.703 4.92629 163.11 3.38938C164.517 1.81832 166.56 1.03279 169.239 1.03279C171.918 1.03279 173.961 1.81832 175.368 3.38938C176.775 4.92629 177.478 7.14627 177.478 10.0493V13.1231H172.253V9.6907C172.253 7.33411 171.299 6.15581 169.39 6.15581C167.481 6.15581 166.526 7.33411 166.526 9.6907V29.3119C166.526 31.6343 167.481 32.7956 169.39 32.7956C171.299 32.7956 172.253 31.6343 172.253 29.3119V22.2933H169.49V17.1703H177.478V28.9021C177.478 31.8051 176.775 34.0422 175.368 35.6132C173.961 37.1501 171.918 37.9186 169.239 37.9186ZM179.519 1.54509H194.59V6.66812H185.045V16.1457H192.631V21.2687H185.045V32.2832H194.59V37.4063H179.519V1.54509ZM196.262 1.54509H204.702C207.448 1.54509 209.508 2.29647 210.881 3.79922C212.254 5.30198 212.941 7.50488 212.941 10.4079V28.5434C212.941 31.4465 212.254 33.6494 210.881 35.1521C209.508 36.6549 207.448 37.4063 204.702 37.4063H196.262V1.54509ZM204.601 32.2832C205.506 32.2832 206.192 32.01 206.661 31.4636C207.164 30.9171 207.415 30.0291 207.415 28.7996V10.1518C207.415 8.92225 207.164 8.03426 206.661 7.4878C206.192 6.94134 205.506 6.66812 204.601 6.66812H201.788V32.2832H204.601ZM225.364 25.5209L222.903 7.79518H222.802L220.391 25.5209H225.364ZM291.788 1.54509H299.273L305 37.4063H299.474L298.469 30.2853V30.3877H292.189L291.185 37.4063H286.06L291.788 1.54509ZM297.816 25.5209L295.354 7.79518H295.254L292.843 25.5209H297.816Z" fill="#252525"/>
</svg>
