<svg width="413" height="157" viewBox="0 0 413 157" fill="none" xmlns="http://www.w3.org/2000/svg">
<path d="M0 0.984621H10.4487L15.2787 53.9573H15.4759L20.6016 0.984621H32.4303L37.5561 53.9573H37.7532L42.5833 0.984621H51.9477L44.949 69.9082H31.4446L26.516 23.434H26.3188L21.3902 69.9082H6.99864L0 0.984621Z" fill="#252525"/>
<path d="M70.1481 70.8928C64.8252 70.8928 60.7509 69.3831 57.9252 66.3635C55.0994 63.344 53.6866 59.0773 53.6866 53.5634V17.3294C53.6866 11.8155 55.0994 7.54877 57.9252 4.52926C60.7509 1.50975 64.8252 0 70.1481 0C75.4711 0 79.5454 1.50975 82.3711 4.52926C85.1969 7.54877 86.6097 11.8155 86.6097 17.3294V53.5634C86.6097 59.0773 85.1969 63.344 82.3711 66.3635C79.5454 69.3831 75.4711 70.8928 70.1481 70.8928ZM70.1481 61.0466C73.8939 61.0466 75.7668 58.7819 75.7668 54.2527V16.6401C75.7668 12.1109 73.8939 9.84622 70.1481 9.84622C66.4024 9.84622 64.5295 12.1109 64.5295 16.6401V54.2527C64.5295 58.7819 66.4024 61.0466 70.1481 61.0466Z" fill="#252525"/>
<path d="M90.9854 0.984621H107.053C112.639 0.984621 116.713 2.29745 119.276 4.92311C121.839 7.48313 123.12 11.4544 123.12 16.837V21.0709C123.12 28.2258 120.754 32.7551 116.023 34.6587V34.8556C118.651 35.6433 120.491 37.2515 121.543 39.6803C122.66 42.109 123.219 45.3583 123.219 49.428V61.5389C123.219 63.5081 123.284 65.1164 123.416 66.3635C123.547 67.5451 123.876 68.7266 124.401 69.9082H113.361C112.967 68.7923 112.704 67.742 112.573 66.7574C112.441 65.7728 112.376 64.0005 112.376 61.4404V48.8373C112.376 45.6865 111.85 43.4875 110.798 42.2403C109.813 40.9931 108.071 40.3695 105.574 40.3695H101.828V69.9082H90.9854V0.984621ZM105.771 30.5233C107.94 30.5233 109.55 29.9653 110.601 28.8494C111.719 27.7335 112.277 25.8627 112.277 23.2371V17.9201C112.277 15.4257 111.817 13.6206 110.897 12.5047C110.043 11.3888 108.663 10.8308 106.757 10.8308H101.828V30.5233H105.771Z" fill="#252525"/>
<path d="M127.785 0.984621H138.627V30.031L152.428 0.984621H163.271L150.358 26.2894L163.468 69.9082H152.132L142.965 39.188L138.627 47.9511V69.9082H127.785V0.984621Z" fill="#252525"/>
<path fill-rule="evenodd" clip-rule="evenodd" d="M363.929 150.647C358.738 150.647 354.762 149.17 352.002 146.216C349.308 143.263 347.961 139.094 347.961 133.712V96.6899C347.961 95.8022 347.997 94.9475 348.071 94.1258C355.024 90.2452 361.482 88.3049 367.447 88.3049C372.344 88.3049 375.431 89.8291 376.708 92.8774C376.708 93.4446 376.886 93.6927 377.241 93.6218C377.383 93.5509 377.454 93.1965 377.454 92.5584C377.454 90.2899 376.389 88.4466 374.26 87.0288C372.415 85.6818 370.321 85.0084 367.979 85.0084C362.164 84.9736 355.682 87.0123 348.534 91.1245C349.167 88.3396 350.323 86.0265 352.002 84.1852C354.762 81.2313 358.738 79.7544 363.929 79.7544C369.121 79.7544 373.064 81.2313 375.758 84.1852C378.518 87.1391 379.898 91.3073 379.898 96.6899V103.976H369.647V96.0007C369.647 91.734 367.839 89.6006 364.225 89.6006C360.611 89.6006 358.804 91.734 358.804 96.0007V134.499C358.804 138.7 360.611 140.801 364.225 140.801C367.839 140.801 369.647 138.7 369.647 134.499V123.964H379.898V133.712C379.898 139.094 378.518 143.263 375.758 146.216C373.064 149.17 369.121 150.647 363.929 150.647ZM209.095 139.816C209.719 136.56 211.119 133.214 213.295 129.777C216.134 125.453 219.541 121.873 223.515 119.037C229.477 114.783 235.651 112.089 242.039 110.955C240.903 109.892 240.335 108.155 240.335 105.744C240.335 100.853 242.784 96.3158 247.681 92.1331C251.513 88.872 256.198 86.2135 261.733 84.1576C268.973 81.5346 276.78 80.1522 285.154 80.0104C296.013 79.8686 306.446 81.3574 316.453 84.4767C320.002 85.6109 324.012 87.525 328.483 90.219C329.122 90.5734 329.299 90.9279 329.015 91.2824C328.731 91.4242 328.483 91.4242 328.27 91.2824C326.921 90.5025 325.821 90.1126 324.97 90.1126C320.782 90.6798 316.701 94.6143 312.727 101.916C310.03 106.737 307.759 112.302 305.914 118.612C303.075 127.969 299.916 135.59 296.439 141.474C303.11 132.542 312.337 122.263 324.118 110.636C332.975 101.898 341.113 95.3937 348.534 91.1245C348.319 92.0705 348.165 93.0709 348.071 94.1258C340.958 98.0953 333.329 104.095 325.183 112.125C313.401 123.751 302.649 135.803 292.926 148.28C292.5 149.273 291.897 150.442 291.116 151.789C289.767 154.271 288.632 155.334 287.709 154.98C287.283 154.838 287.071 154.519 287.071 154.023C287.071 153.384 287.532 152.392 288.454 151.045C289.164 149.698 290.548 147.926 292.606 145.728C293.6 143.885 294.7 140.34 295.907 135.094C297.823 126.658 299.029 121.624 299.526 119.994C301.939 111.558 305.381 104.646 309.853 99.2578C313.188 95.146 316.418 92.3458 319.54 90.857C319.043 90.9279 318.227 91.1406 317.092 91.495C314.679 92.3458 311.662 94.189 308.043 97.0247C301.513 102.129 294.168 109.041 286.006 117.761L275.892 128.501C271.492 133.109 267.695 136.831 264.501 139.667C251.584 151.222 237.958 157 223.621 157C219.079 157 215.46 155.866 212.763 153.597C211.465 152.54 210.48 151.228 209.807 149.663H211.716C212.275 150.726 213.014 151.648 213.934 152.427C216.347 154.412 219.505 155.405 223.408 155.405C234.054 155.405 247.007 148.954 262.266 136.051C269.647 129.813 276.141 123.893 281.748 118.293C288.561 111.487 293.99 106.312 298.036 102.767C305.772 96.174 311.982 92.0622 316.666 90.4317C319.363 89.51 321.989 89.1201 324.544 89.2619C313.614 84.2994 300.484 82.0309 285.154 82.4562C277.702 82.6689 270.676 84.0159 264.076 86.4971C256.552 89.3328 250.626 93.2674 246.297 98.3008C243.742 101.278 242.465 104.22 242.465 107.127C242.465 108.757 242.855 109.927 243.636 110.636C246.545 110.211 249.562 110.104 252.685 110.317C255.665 110.53 258.291 111.522 260.562 113.295C262.905 115.067 264.076 117.406 264.076 120.313C264.076 121.164 263.934 122.121 263.65 123.184C263.224 124.602 262.692 125.311 262.053 125.311C261.982 125.311 261.911 125.275 261.84 125.205L262.266 123.503C262.479 122.652 262.585 121.802 262.585 120.951C262.585 118.257 261.556 116.095 259.498 114.464C257.511 112.834 255.133 111.912 252.365 111.699C243.848 111.132 234.835 114.323 225.325 121.27C221.492 124.177 218.192 127.473 215.424 131.16C213.172 134.174 211.681 137.06 210.949 139.816H209.095ZM210.949 139.816C210.597 141.143 210.421 142.44 210.421 143.708C210.421 146.033 210.852 148.018 211.716 149.663H220.527V139.816H210.949ZM209.095 139.816C208.843 141.128 208.717 142.425 208.717 143.708C208.717 145.989 209.08 147.974 209.807 149.663H190.956V80.739H220.527V90.5853H201.799V108.801H216.683V118.647H201.799V139.816H209.095ZM383.428 80.739H413V90.5853H394.271V108.801H409.156V118.647H394.271V139.816H413V149.663H383.428V80.739ZM0.0985724 80.739H29.6703V90.5853H10.9415V108.801H25.826V118.647H10.9415V139.816H29.6703V149.663H0.0985724V80.739ZM42.705 114.413L30.7777 80.739H42.2121L49.5065 102.991H49.7036L57.1951 80.739H67.4466L55.5194 114.413L68.0381 149.663H56.6037L48.7179 125.638H48.5207L40.4378 149.663H30.1863L42.705 114.413ZM70.2313 80.739H86.2001C91.5887 80.739 95.6302 82.1831 98.3245 85.0714C101.019 87.9596 102.366 92.1935 102.366 97.773V104.567C102.366 110.146 101.019 114.38 98.3245 117.269C95.6302 120.157 91.5887 121.601 86.2001 121.601H81.0743V149.663H70.2313V80.739ZM86.2001 111.755C87.9744 111.755 89.2887 111.262 90.1429 110.278C91.063 109.293 91.523 107.619 91.523 105.256V97.0838C91.523 94.7207 91.063 93.0468 90.1429 92.0622C89.2887 91.0776 87.9744 90.5853 86.2001 90.5853H81.0743V111.755H86.2001ZM105.298 80.739H134.869V90.5853H116.141V108.801H131.025V118.647H116.141V139.816H134.869V149.663H105.298V80.739ZM138.15 80.739H154.217C159.803 80.739 163.877 82.0519 166.44 84.6775C169.003 87.2375 170.285 91.2088 170.285 96.5914V100.825C170.285 107.98 167.919 112.51 163.187 114.413V114.61C165.816 115.398 167.656 117.006 168.707 119.435C169.825 121.863 170.383 125.113 170.383 129.182V141.293C170.383 143.263 170.449 144.871 170.58 146.118C170.712 147.299 171.04 148.481 171.566 149.663H160.526C160.132 148.547 159.869 147.496 159.737 146.512C159.606 145.527 159.54 143.755 159.54 141.195V128.592C159.54 125.441 159.015 123.242 157.963 121.995C156.977 120.748 155.236 120.124 152.739 120.124H148.993V149.663H138.15V80.739ZM152.936 110.278C155.104 110.278 156.715 109.72 157.766 108.604C158.883 107.488 159.442 105.617 159.442 102.991V97.6745C159.442 95.1802 158.982 93.375 158.062 92.2591C157.207 91.1432 155.827 90.5853 153.922 90.5853H148.993V110.278H152.936ZM174.949 80.739H185.792V149.663H174.949V80.739Z" fill="#252525"/>
</svg>
