<svg width="930" height="258" viewBox="0 0 930 258" fill="none" xmlns="http://www.w3.org/2000/svg">
<path fill-rule="evenodd" clip-rule="evenodd" d="M462.453 36.4676C464.271 37.1493 465.52 36.8085 466.202 35.4452C466.202 34.5363 464.839 33.6275 462.112 32.7186C450.359 28.8589 441.111 25.9475 434.369 23.9843V8.8108H469.08V198.155H526.194V229.712H434.369V38.0202C439.151 36.0222 443.401 34.823 447.117 34.4227C452.116 33.9683 457.228 34.6499 462.453 36.4676ZM434.369 34.1202V38.0202C420.152 43.9604 401.228 56.9621 377.596 77.0251C326.023 120.877 286.491 165.865 259.001 211.989C248.323 229.712 241.734 238.233 239.235 237.551C236.736 236.869 235.486 234.824 235.486 231.416C235.486 222.1 246.165 202.56 267.521 172.795C271.837 163.934 273.996 155.641 273.996 147.915C273.996 140.645 272.065 133.942 268.202 127.807C265.249 130.534 259.91 135.646 252.185 143.144C175.166 219.715 108.485 258 52.141 258C17.3803 258 0 243.913 0 215.738C0 197.334 7.72459 178.476 23.1738 159.162C35.8966 143.03 51.573 129.284 70.2029 117.923C95.8758 102.246 126.547 92.4756 162.216 88.6129C155.173 83.6143 152.22 76.3435 153.356 66.8005C155.628 45.897 170.282 29.1968 197.318 16.7001C221.4 5.56671 249.232 0 280.812 0C309.892 0 338.178 2.49934 365.669 7.49802C379.527 9.99736 400.656 14.996 429.056 22.494C430.609 22.9082 432.38 23.405 434.369 23.9843V27.8629C432.942 27.5696 431.398 27.2568 429.737 26.9247C401.792 21.6988 381.686 18.2906 369.417 16.7001C343.971 13.5192 314.323 11.9287 280.471 11.9287C255.479 11.9287 231.397 15.7913 208.223 23.5165C176.643 33.9683 159.831 48.9643 157.786 68.5046C156.877 77.3659 160.172 83.8415 167.669 87.9313C171.304 87.4769 174.485 87.2497 177.211 87.2497C216.516 86.568 245.483 95.8837 264.113 115.197C305.008 81.7966 344.653 58.0528 383.049 43.9657C402.618 36.7452 419.725 32.2261 434.369 30.4083V34.0929C422.801 35.0243 407.739 39.2241 389.183 46.6922C351.015 62.1427 311.824 88.1585 271.61 124.74C276.381 132.238 278.767 140.077 278.767 148.256C278.767 152.346 278.199 156.436 277.063 160.526C285.469 149.62 294.898 138.827 305.349 128.148C357.532 74.8259 400.539 43.4834 434.369 34.1202ZM434.369 34.1202V34.0929C434.416 34.0892 434.462 34.0855 434.508 34.0819C434.462 34.0946 434.416 34.1074 434.369 34.1202ZM434.369 30.4083C437.236 30.0524 440.009 29.8001 442.687 29.6513C440.597 29.1689 437.825 28.5728 434.369 27.8629V30.4083ZM177.552 93.7252C214.585 92.3619 242.302 100.542 260.705 118.264C251.617 125.308 242.529 133.147 233.442 141.781C191.865 180.407 157.9 208.127 131.545 224.941C101.328 244.254 74.2924 253.91 50.437 253.91C20.6746 253.91 5.79344 241.413 5.79344 216.42C5.79344 187.337 29.7624 157.686 77.7003 127.466C91.3319 118.832 107.349 111.334 125.752 104.972C145.518 97.9287 162.784 94.1797 177.552 93.7252ZM586.384 8.8108H533.372V229.712H586.384C603.634 229.712 616.571 225.084 625.196 215.827C633.821 206.57 638.134 193 638.134 175.118V63.405C638.134 45.5225 633.821 31.9528 625.196 22.696C616.571 13.4392 603.634 8.8108 586.384 8.8108ZM598.69 193.106C595.745 196.472 591.433 198.155 585.753 198.155H568.082V40.3681H585.753C591.433 40.3681 595.745 42.0512 598.69 45.4173C601.846 48.7834 603.424 54.2533 603.424 61.8271V176.696C603.424 184.269 601.846 189.739 598.69 193.106ZM703.531 8.8108H652.097V229.712H686.807V135.04H698.798C706.792 135.04 712.366 137.039 715.522 141.036C718.888 145.033 720.571 152.081 720.571 162.179V202.573C720.571 210.778 720.781 216.458 721.202 219.614C721.622 222.769 722.464 226.136 723.726 229.712H759.067C757.384 225.925 756.332 222.138 755.912 218.351C755.491 214.354 755.281 209.2 755.281 202.888V164.073C755.281 151.029 753.493 140.615 749.916 132.831C746.551 125.047 740.66 119.893 732.246 117.368V116.737C747.392 110.636 754.965 96.1194 754.965 73.1877V59.6181C754.965 42.3667 750.863 29.6386 742.659 21.4337C734.455 13.0184 721.412 8.8108 703.531 8.8108ZM714.891 98.118C711.525 101.694 706.371 103.483 699.429 103.483H686.807V40.3681H702.584C708.685 40.3681 713.103 42.1564 715.837 45.7329C718.782 49.3094 720.255 55.0949 720.255 63.0894V80.1303C720.255 88.5456 718.467 94.5415 714.891 98.118ZM804.607 8.8108H769.897V229.712H804.607V8.8108ZM864.682 8.8108H821.136V229.712H852.06V68.4541H852.691L894.343 229.712H930V8.8108H899.076V141.036H898.445L864.682 8.8108Z" fill="#252525"/>
</svg>
