<svg width="904" height="258" viewBox="0 0 904 258" fill="none" xmlns="http://www.w3.org/2000/svg">
<path fill-rule="evenodd" clip-rule="evenodd" d="M767.496 6.79754C769.54 6.79754 770.562 6.45766 770.562 5.7779C770.789 4.64498 769.313 3.96523 766.134 3.73865C763.409 3.73865 760.344 4.19182 756.937 5.09816C752.284 6.42496 747.65 8.10853 743.035 10.1488V3.34841H777.727V223.639H743.035V15.6939C748.176 12.8353 753.605 10.4364 759.322 8.49692C761.138 7.81716 763.863 7.2507 767.496 6.79754ZM413.384 216.08C401.244 217.46 395.526 221.225 396.231 227.377C396.458 230.096 400.545 231.456 408.493 231.456C416.213 231.456 426.545 229.87 439.488 226.697C447.89 224.658 454.021 223.299 457.881 222.619C466.737 245.051 485.017 256.833 512.72 257.966C527.025 258.419 540.65 254.341 553.593 245.73C566.763 237.12 574.597 226.018 577.095 212.423V206.305C576.641 206.078 575.96 206.645 575.051 208.004C566.65 220.013 551.549 225.564 529.75 224.658C516.58 224.205 498.982 222.279 476.956 218.88C531.907 212.989 587.313 178.208 643.174 114.538C658.615 96.185 670.195 82.3633 677.916 73.0734C693.584 54.9467 709.252 39.9921 724.92 28.2097C728.78 32.968 730.71 39.5389 730.71 47.9225C730.71 58.1188 727.191 68.3151 720.152 78.5114C703.121 103.436 684.387 115.105 663.951 113.519C661.907 111.479 659.75 110.12 657.479 109.44C652.256 108.081 649.645 109.1 649.645 112.499C649.645 114.765 651.802 116.238 656.117 116.917C637.497 157.703 628.187 186.932 628.187 204.605C628.187 220.693 634.658 228.737 647.601 228.737C656.684 228.737 665.54 223.978 674.169 214.462C675.531 213.102 675.872 212.083 675.191 211.403C674.964 211.176 674.737 211.063 674.51 211.063C673.828 211.063 673.147 211.516 672.466 212.423C667.243 217.634 662.475 220.24 658.16 220.24C650.894 220.24 647.261 213.782 647.261 200.867C647.261 192.257 648.623 181.381 651.348 168.239C654.981 150.792 659.409 133.798 664.632 117.257C677.348 117.484 689.951 114.652 702.44 108.76C727.191 96.978 739.566 80.0975 739.566 58.1188C739.566 44.977 735.933 34.1009 728.667 25.4907C733.176 21.7783 737.966 18.5126 743.035 15.6939V10.1488C736.618 12.9866 730.239 16.5145 723.898 20.7325C711.863 9.40325 693.811 2.71902 669.741 0.679764C664.291 0.226588 658.728 0 653.051 0C600.824 0 554.161 18.8065 513.06 56.4195C494.667 73.1867 480.021 92.7862 469.122 115.218C457.541 138.783 451.75 162.348 451.75 185.912C451.75 197.241 453.226 207.324 456.178 216.161C453.254 216.067 450.495 215.983 447.904 215.908L413.212 3.34841H366.22L330.267 223.639H362.436L368.743 180.525H408.166V179.895L413.384 216.08ZM413.384 216.08C416.893 215.681 420.94 215.481 425.523 215.481C430.561 215.481 438.021 215.624 447.904 215.908L449.165 223.639H414.473L413.384 216.08ZM657.138 5.7779C685.523 5.7779 706.754 11.5558 720.833 23.1116C695.855 38.9725 663.042 68.7683 622.396 112.499C591.287 146.033 564.379 170.731 541.672 186.592C512.833 206.758 486.039 216.841 461.288 216.841C458.336 208.004 456.86 199.054 456.86 189.991C456.86 169.145 464.239 145.807 478.999 119.976C491.715 97.771 507.043 78.3981 524.982 61.8575C542.92 45.3168 563.357 32.0617 586.292 22.0919C610.588 11.2159 634.204 5.7779 657.138 5.7779ZM530.772 231.456C548.484 231.909 562.789 226.244 573.689 214.462C570.283 226.018 562.449 235.534 550.187 243.011C537.925 250.715 525.663 254.341 513.401 253.887C488.196 252.755 471.392 241.992 462.991 221.599C467.305 221.146 470.03 221.033 471.165 221.259C502.956 227.83 522.824 231.229 530.772 231.456ZM51.7223 226.786C34.9021 226.786 22.0766 222.065 13.246 212.624C4.41532 202.973 0 189.231 0 171.398V55.5886C0 37.7556 4.41532 24.1186 13.246 14.6776C22.0766 5.02682 34.9021 0.201414 51.7223 0.201414C68.5426 0.201414 81.3681 5.02682 90.1987 14.6776C99.0294 24.1186 103.445 37.7556 103.445 55.5886V74.4706H70.6451V53.3857C70.6451 38.9095 64.6529 31.6714 52.6685 31.6714C40.684 31.6714 34.6918 38.9095 34.6918 53.3857V173.916C34.6918 188.182 40.684 195.316 52.6685 195.316C64.6529 195.316 70.6451 188.182 70.6451 173.916V130.802H53.2992V99.332H103.445V171.398C103.445 189.231 99.0294 202.973 90.1987 212.624C81.3681 222.065 68.5426 226.786 51.7223 226.786ZM116.257 3.34841H210.871V34.8184H150.949V93.038H198.571V124.508H150.949V192.169H210.871V223.639H116.257V3.34841ZM221.367 3.34841H274.351C291.592 3.34841 304.522 7.96402 313.143 17.1952C321.763 26.4264 326.073 39.9585 326.073 57.7915V169.195C326.073 187.028 321.763 200.561 313.143 209.792C304.522 219.023 291.592 223.639 274.351 223.639H221.367V3.34841ZM273.72 192.169C279.397 192.169 283.707 190.49 286.651 187.133C289.805 183.776 291.382 178.322 291.382 170.769V56.218C291.382 48.6652 289.805 43.2104 286.651 39.8536C283.707 36.4968 279.397 34.8184 273.72 34.8184H256.059V192.169H273.72ZM404.066 150.628L388.612 41.7418H387.982L372.843 150.628H404.066ZM821.055 3.34841H868.047L904 223.639H869.308L863.001 179.895V180.525H823.578L817.27 223.639H785.102L821.055 3.34841ZM858.901 150.628L843.447 41.7418H842.816L827.678 150.628H858.901Z" fill="#252525"/>
</svg>
