<svg width="306" height="158" viewBox="0 0 306 158" fill="none" xmlns="http://www.w3.org/2000/svg">
<path fill-rule="evenodd" clip-rule="evenodd" d="M17.5703 0.99177H1.57936V70.4157H12.4374V42.1503H17.5703C22.9665 42.1503 27.0136 40.6957 29.7116 37.7865C32.4097 34.8773 33.7587 30.6127 33.7587 24.9926V18.1494C33.7587 12.5294 32.4097 8.26476 29.7116 5.35556C27.0136 2.44637 22.9665 0.99177 17.5703 0.99177ZM21.5187 30.7449C20.6632 31.7367 19.3471 32.2325 17.5703 32.2325H12.4374V10.9095H17.5703C19.3471 10.9095 20.6632 11.4054 21.5187 12.3971C22.44 13.3889 22.9006 15.0749 22.9006 17.4552V25.6869C22.9006 28.0671 22.44 29.7531 21.5187 30.7449ZM66.3075 0.99177H36.6946V70.4157H66.3075V60.498H47.5526V39.1749H62.4578V29.2572H47.5526V10.9095H66.3075V0.99177ZM85.6823 0.99177H69.5926V70.4157H80.4507V40.6626H84.2017C86.7023 40.6626 88.4462 41.2907 89.4333 42.547C90.4862 43.8032 91.0126 46.0182 91.0126 49.1918V61.8865C91.0126 64.4651 91.0784 66.2503 91.2101 67.2421C91.3417 68.2338 91.6049 69.2917 91.9997 70.4157H103.055C102.529 69.2256 102.2 68.0355 102.068 66.8453C101.937 65.5891 101.871 63.9692 101.871 61.9857V49.7869C101.871 45.6876 101.311 42.4147 100.193 39.9684C99.1397 37.522 97.2972 35.9021 94.6649 35.1087V34.9103C99.403 32.9929 101.772 28.4308 101.772 21.2239V16.9593C101.772 11.5376 100.489 7.53746 97.9223 4.95885C95.3559 2.31413 91.2759 0.99177 85.6823 0.99177ZM89.2359 29.0589C88.183 30.1829 86.5707 30.7449 84.3991 30.7449H80.4507V10.9095H85.3862C87.2946 10.9095 88.6765 11.4715 89.532 12.5955C90.4533 13.7195 90.9139 15.5377 90.9139 18.0502V23.4058C90.9139 26.0505 90.3546 27.9349 89.2359 29.0589ZM108.615 66.9445C111.313 69.9198 115.294 71.4075 120.558 71.4075C125.889 71.4075 129.936 69.8868 132.7 66.8453C135.529 63.8039 136.944 59.4401 136.944 53.754C136.944 49.3902 136.089 45.5884 134.378 42.3486C132.667 39.1088 129.541 35.5054 125 31.5383C121.447 28.4308 118.979 25.786 117.597 23.6041C116.281 21.4222 115.623 19.0751 115.623 16.5626C115.623 12.1327 117.433 9.91771 121.052 9.91771C122.829 9.91771 124.178 10.4797 125.099 11.6037C126.02 12.6616 126.481 14.3807 126.481 16.7609V20.3313H136.747V17.4552C136.747 11.8351 135.398 7.53746 132.7 4.56215C130.067 1.52072 126.152 0 120.953 0C115.689 0 111.675 1.52072 108.911 4.56215C106.147 7.53746 104.765 11.769 104.765 17.2568C104.765 21.29 105.653 24.9265 107.43 28.1663C109.207 31.34 112.333 34.9103 116.807 38.8774C120.361 41.985 122.796 44.6627 124.112 46.9108C125.428 49.0926 126.086 51.6382 126.086 54.5474C126.086 56.9938 125.593 58.7789 124.606 59.903C123.684 60.9608 122.302 61.4898 120.46 61.4898C116.709 61.4898 114.833 59.2418 114.833 54.7457V49.9852H104.567V53.9523C104.567 59.5724 105.917 63.9031 108.615 66.9445ZM143.663 66.8453C146.493 69.8868 150.573 71.4075 155.903 71.4075C161.234 71.4075 165.314 69.8868 168.143 66.8453C170.973 63.8039 172.388 59.5062 172.388 53.9523V17.4552C172.388 11.9012 170.973 7.60358 168.143 4.56215C165.314 1.52072 161.234 0 155.903 0C150.573 0 146.493 1.52072 143.663 4.56215C140.834 7.60358 139.419 11.9012 139.419 17.4552V53.9523C139.419 59.5062 140.834 63.8039 143.663 66.8453ZM161.53 54.6466C161.53 59.2087 159.654 61.4898 155.903 61.4898C152.152 61.4898 150.277 59.2087 150.277 54.6466V16.7609C150.277 12.1988 152.152 9.91771 155.903 9.91771C159.654 9.91771 161.53 12.1988 161.53 16.7609V54.6466ZM190.392 0.99177H176.77V70.4157H186.443V19.7362H186.641L199.67 70.4157H210.825V0.99177H201.151V42.547H200.954L190.392 0.99177ZM239.032 0.99177H224.324L213.071 70.4157H223.139L225.114 56.8285H237.452V56.6301L239.426 70.4157H250.285L239.032 0.99177ZM231.332 13.0914L236.169 47.4066H226.397L231.135 13.0914H231.332ZM263.449 0.99177H252.591V70.4157H281.316V60.498H263.449V0.99177ZM149.15 150.154C150.532 150.419 152.21 150.551 154.185 150.551C159.515 150.551 163.463 149.162 166.03 146.385C168.662 143.608 169.978 139.377 169.978 133.691V80.7302H159.12V85.171L159.065 85.1376C155.227 82.7811 150.287 81.6029 144.246 81.6029C127.9 81.6029 111.909 87.5654 96.2735 99.4905C89.1664 104.917 83.0543 111.166 77.9372 118.235C71.5408 127.018 68.4848 135.016 68.7691 142.228C68.9823 147.798 71.1499 151.975 75.2721 154.76C78.8967 157.116 83.5874 158.187 89.3441 157.973C96.6644 157.688 104.802 155.331 113.757 150.904C130.245 142.763 142.754 131.66 151.282 117.592C154.215 117.125 156.828 115.968 159.12 114.121V133.988C159.12 136.236 158.594 137.922 157.541 139.046C156.488 140.104 154.875 140.633 152.704 140.633C151.388 140.633 150.203 140.501 149.15 140.236V150.154ZM159.12 111.463V114.121C160.328 113.149 161.446 111.985 162.476 110.63C165.461 106.703 166.811 102.418 166.527 97.7767C166.173 92.1581 163.704 87.9562 159.12 85.171V87.2555C156.051 84.6296 151.52 83.3167 145.526 83.3167C131.738 83.3167 116.6 89.8505 100.111 102.918C80.709 118.342 71.0433 131.41 71.1144 142.121C71.1855 152.403 77.7595 157.116 90.8366 156.259C85.2931 155.188 82.5213 151.618 82.5213 145.548C82.5213 142.335 83.3386 138.943 84.9732 135.373C89.9482 124.662 97.5883 115.379 107.894 107.524C113.366 103.382 119.265 99.9903 125.59 97.3483C132.768 94.3491 139.378 92.8496 145.419 92.8496C149.541 92.8496 152.633 93.885 154.694 95.9558C156.329 97.5982 157.146 99.669 157.146 102.168C157.146 105.667 155.405 110.452 151.922 116.521C154.725 115.582 157.125 113.896 159.12 111.463ZM159.12 111.463C159.705 110.749 160.255 109.972 160.77 109.13C163.116 105.346 164.146 101.526 163.862 97.6696C163.49 93.1136 161.909 89.6423 159.12 87.2555V111.463ZM204.393 80.7302H174.78V150.154H204.393V140.236H185.638V118.913H200.543V108.996H185.638V90.6479H204.393V80.7302ZM211.034 146.683C213.798 149.658 217.78 151.146 222.978 151.146C228.177 151.146 232.125 149.658 234.823 146.683C237.587 143.708 238.969 139.509 238.969 134.087V124.269H228.703V134.881C228.703 139.112 226.894 141.228 223.274 141.228C219.655 141.228 217.845 139.112 217.845 134.881V96.1026C217.845 91.8049 219.655 89.6561 223.274 89.6561C226.894 89.6561 228.703 91.8049 228.703 96.1026V104.136H238.969V96.7968C238.969 91.3752 237.587 87.1767 234.823 84.2014C232.125 81.226 228.177 79.7384 222.978 79.7384C217.78 79.7384 213.798 81.226 211.034 84.2014C208.336 87.1767 206.987 91.3752 206.987 96.7968V134.087C206.987 139.509 208.336 143.708 211.034 146.683ZM239.642 90.6479H250.993V150.154H261.851V90.6479H273.203V80.7302H239.642V90.6479ZM277.67 146.683C280.368 149.658 284.35 151.146 289.614 151.146C294.945 151.146 298.992 149.625 301.755 146.584C304.585 143.542 306 139.179 306 133.492C306 129.129 305.145 125.327 303.434 122.087C301.723 118.847 298.597 115.244 294.056 111.277C290.503 108.169 288.035 105.524 286.653 103.343C285.337 101.161 284.679 98.8134 284.679 96.301C284.679 91.871 286.488 89.6561 290.108 89.6561C291.885 89.6561 293.234 90.2181 294.155 91.3421C295.076 92.4 295.537 94.1191 295.537 96.4993V100.07H305.803V97.1935C305.803 91.5735 304.454 87.2758 301.755 84.3005C299.123 81.2591 295.208 79.7384 290.009 79.7384C284.745 79.7384 280.73 81.2591 277.966 84.3005C275.203 87.2758 273.821 91.5074 273.821 96.9952C273.821 101.028 274.709 104.665 276.486 107.905C278.263 111.078 281.388 114.649 285.863 118.616C289.417 121.723 291.852 124.401 293.168 126.649C294.484 128.831 295.142 131.377 295.142 134.286C295.142 136.732 294.648 138.517 293.661 139.641C292.74 140.699 291.358 141.228 289.515 141.228C285.765 141.228 283.889 138.98 283.889 134.484V129.724H273.623V133.691C273.623 139.311 274.972 143.641 277.67 146.683ZM15.991 80.7302H0V150.154H10.8581V121.889H15.991C21.3871 121.889 25.4342 120.434 28.1323 117.525C30.8303 114.616 32.1794 110.351 32.1794 104.731V97.8878C32.1794 92.2677 30.8303 88.0031 28.1323 85.0939C25.4342 82.1848 21.3871 80.7302 15.991 80.7302ZM19.9394 110.483C19.0839 111.475 17.7677 111.971 15.991 111.971H10.8581V90.6479H15.991C17.7677 90.6479 19.0839 91.1437 19.9394 92.1355C20.8606 93.1273 21.3213 94.8133 21.3213 97.1935V105.425C21.3213 107.805 20.8606 109.492 19.9394 110.483ZM51.2049 80.7302H35.1152V150.154H45.9733V120.401H49.7242C52.2249 120.401 53.9687 121.029 54.9558 122.285C56.0087 123.542 56.5352 125.757 56.5352 128.93V141.625C56.5352 144.203 56.601 145.989 56.7326 146.98C56.8642 147.972 57.1275 149.03 57.5223 150.154H68.5778C68.0513 148.964 67.7223 147.774 67.5907 146.584C67.4591 145.327 67.3933 143.708 67.3933 141.724V129.525C67.3933 125.426 66.8339 122.153 65.7152 119.707C64.6623 117.26 62.8197 115.64 60.1875 114.847V114.649C64.9255 112.731 67.2946 108.169 67.2946 100.962V96.6977C67.2946 91.276 66.0113 87.2758 63.4449 84.6972C60.8784 82.0525 56.7984 80.7302 51.2049 80.7302ZM54.7584 108.797C53.7055 109.921 52.0933 110.483 49.9216 110.483H45.9733V90.6479H50.9087C52.8171 90.6479 54.1991 91.2099 55.0546 92.3339C55.9758 93.4579 56.4365 95.2761 56.4365 97.7886V103.144C56.4365 105.789 55.8771 107.673 54.7584 108.797ZM155.653 101.847C155.653 96.777 152.526 94.242 146.272 94.242C136.464 94.242 124.524 99.6333 110.452 110.416C92.8266 123.983 84.0138 135.837 84.0138 145.977C84.0138 152.403 87.7095 155.617 95.1009 155.617C108.107 153.046 121.61 145.12 135.611 131.838C140.373 127.339 144.495 122.769 147.978 118.128C153.095 111.344 155.653 105.917 155.653 101.847Z" fill="#252525"/>
</svg>
