<?xml version="1.0" encoding="UTF-8"?>
<svg id="Layer_2" data-name="Layer 2" xmlns="http://www.w3.org/2000/svg" viewBox="0 0 48 48.05">
  <defs>
    <style>
      .cls-1 {
        fill: #fff;
      }

      .cls-2 {
        opacity: .9;
      }
    </style>
  </defs>
  <g id="Graphic_Elements" data-name="Graphic Elements">
    <g class="cls-2">
      <g>
        <path class="cls-1" d="m28.88.89c.11.01.22.03.33.04-.11-.01-.22-.03-.33-.04Z"/>
        <path class="cls-1" d="m35.83,3.13l-.61-.33s0,0,0,0c-.02,0-.03-.02-.05-.03-.06-.03-.13-.06-.19-.1.04.02.09.04.13.06-.1-.05-.19-.1-.29-.15l-.43-.19s.07.04.11.05c-.52-.24-1.05-.46-1.6-.65-2.33-.55-4.74-.78-8.88-.85,7.68.38,10.31,1.47,11.2,1.85.2.11.41.21.61.33Z"/>
        <path class="cls-1" d="m29.71.7c-.3-.07-.6-.14-.86-.2l-.16-.03c-.89-.14-2.64.14-4.67.48.18-.02.35-.04.52-.06,3.37-.38,4.35-.32,5.17-.19Z"/>
        <path class="cls-1" d="m27.23.22c-.27-.03-.6-.07-.85-.1,0,0,0,0-.01,0-.05.01-.06.01-2.34.83,2.66-.71,2.92-.71,3.28-.72-.02,0-.05,0-.07,0Z"/>
        <path class="cls-1" d="m15.87,46.64c.06.02.12.04.18.06.43.14.95.31,1.36.43.42.12.99.25,1.41.36-5.54-1.35-10.27-4.39-14.05-9.02l1.06,1.31c.13.15.25.28.36.4.39.41.86.89,1.33,1.34.29.27.66.59,1.16,1.04.26.21.57.44.88.67,2.69,1.98,4.52,2.71,6.29,3.4Z"/>
        <path class="cls-1" d="m25.22.07s-.08-.03-.12-.04c0,0,0,0,0,0-.25-.01-.4-.02-.42-.02-.14,0-.32,0-.47,0,.28.01.29.02.42.19q-.08.29-.61.76c1.13-.63,1.16-.75,1.2-.88Z"/>
        <path class="cls-1" d="m1.62,32.82c4.4,10.4,15.43,14.38,19.33,15.04.02,0,.04,0,.06,0,.21.02.46.05.66.07l.41.04s.01,0,.02,0c-2.3-.21-18.1-4.88-21.66-19.22.04.21.08.42.12.61.26,1,.67,2.31,1.01,3.31.02.05.04.1.06.15Z"/>
        <path class="cls-1" d="m23.35.19c.55.21.57.32.67.76.4-.89-.43-.91-1.16-.93-.26.01-.6.04-.85.05l-.24.02c.37-.02,1.15-.08,1.58.09Z"/>
        <path class="cls-1" d="m23.48,48.04c.09,0,.18,0,.27,0h.04s.03,0,.05,0c.1,0,.21,0,.31,0,.09,0,.18,0,.25,0,0,0,0,0,.01,0-1.82-.03-27.92-9.92-23.7-30.02,0,0,0,0,0,0-.14.57-.29,1.33-.41,1.9-.12.73-.21,1.71-.29,2.45-.43,18.03,21.08,25.43,23.47,25.66Z"/>
        <path class="cls-1" d="m19.54.42s-.1.02-.15.03c2.94-.5,4.16.22,4.63.5-.83-.92-2.28-.9-4.48-.53Z"/>
        <path class="cls-1" d="m3.05,12.22c-10.6,20.44,19.1,34.87,22.65,35.77.02,0,.05,0,.07,0h.16s.05-.02.07-.02c.18-.02.4-.04.58-.06.02,0,.05,0,.07,0-4.21-3.2-9.32-4.94-13.38-8.38-1.98-1.68-6.63-5.62-9.35-10.9-5.44-10.55-.6-17.27,1.78-20.17-.08.1-.16.19-.24.29l-.4.48c-.63.86-1.42,2.05-1.98,2.96,0,.01-.01.02-.02.04Z"/>
        <path class="cls-1" d="m18.46.65s.03,0,.04-.01c-.04,0-.08.02-.11.02-.26.06-.61.15-.87.23-.54.15-1.25.37-1.77.57-.32.12-.75.28-1.06.42-.38.16-.87.39-1.24.57-.38.18-.88.44-1.24.65-.43.25-.95.57-1.42.87C5.98,7.26,2.19,12.56,2.71,18.54c1.24,14.09,17.2,23.76,23.21,27.4q2.08,1.26,2.2,1.75s.03,0,.04,0c.33-.06.75-.15,1.07-.22.01,0,.02,0,.03,0,.12-.04.2-.21.28-.3-.27-.53-.81-.9-3.7-2.8-7.43-4.87-14.91-10.47-19.28-18.41C-3.28,8.03,15.83-1.23,24.02.95c-1.59-.61-3.52-.68-5.56-.3Z"/>
        <path class="cls-1" d="m26.77,42.35c4.52,3.2,5.6,3.96,4.17,4.66.02,0,.03,0,.05-.01.22-.07.47-.15.72-.23.17-.06.33-.12.5-.18,2.03-.94.26-2.24-3.96-5.35-4.67-3.43-10.47-7.71-15.4-13.96C-1.7,8.83,13.82-.31,24.02.95c-11.59-2.51-36.52,13.66,2.75,41.4Z"/>
        <path class="cls-1" d="m29.43,38.76c5.27,4.04,7.25,5.56,4.63,7.07.02,0,.04-.02.06-.03.44-.21.99-.5,1.41-.71,2.04-1.19,1.23-2.58.04-3.9-4.96-5.52-11.55-9.17-16.63-14.55C2.58,9.32,13.55.71,24.02.95,13.35-.02-5.7,11.82,29.43,38.76Z"/>
        <path class="cls-1" d="m33.5,35.41c5.03,4.03,6.82,6.19,4.14,8.37.46-.32,1.04-.78,1.5-1.13.23-.19.47-.4.7-.6,2.09-1.91.92-2.94-13.11-15.3C6.39,8.85,15.55,2.52,22.18,1.2c-6.01,1.12-22.77,6.89,11.33,34.21Z"/>
        <path class="cls-1" d="m23.75.97c-.49.04-1.03.12-1.57.23.71-.13,1.26-.2,1.57-.23Z"/>
        <path class="cls-1" d="m24.02.95s-.11,0-.27.02c.09,0,.18-.02.27-.02Z"/>
        <path class="cls-1" d="m32.57,27.53c8.34,6.71,11.47,9.78,8.75,13.11.02-.02.03-.04.05-.06.43-.46.94-1.06,1.34-1.53,0-.01.02-.02.02-.03,2.37-3.11.11-6.38-9.68-13.99C7.52,5.2,21.05,1.49,24.02.95c-2.17.27-20.32,3.35,8.55,26.58Z"/>
        <path class="cls-1" d="m34.29,22.16c9.43,7.05,12.03,10.65,10.26,14.25.07-.12.14-.24.21-.35l.07-.11c.05-.08.09-.16.14-.24l.54-1.04c.07-.13.13-.27.19-.39,2.11-4.83-5.87-10.64-11.17-14.49C17.27,7.23,19.29,2.61,24.02.95c-4.04,1.05-11.12,5.23,10.27,21.21Z"/>
        <path class="cls-1" d="m34.75,16.69c8.24,5.8,13.17,9.68,12.14,14.53.05-.16.1-.33.15-.49.16-.6.33-1.28.46-1.82.71-4.83-4.27-8.5-12.46-14.1-5.41-3.7-15.47-10.59-11.03-13.85-6.97,3.27,6.35,12.66,10.73,15.74Z"/>
        <path class="cls-1" d="m35.35,12.42c9.28,6.02,12.44,8.75,12.6,12.9,0-.08.01-.16.01-.24l.03-1.01-.02-.98c0-.11,0-.22-.02-.33-.36-4.35-6.16-7.94-13.49-12.47-5.16-3.19-11-6.8-10.46-9.33-2.41,2.55,5.86,7.92,11.34,11.47Z"/>
        <path class="cls-1" d="m34.76,8.58c8.55,4.85,11.77,7.21,12.79,10.77-.13-.62-.34-1.39-.51-2.05-.04-.14-.08-.27-.12-.41-1.39-3.61-6.05-6.21-14.13-10.46-5.72-3.01-7.6-4.18-8.76-5.47.67,1.91,4.89,4.31,10.74,7.63Z"/>
        <path class="cls-1" d="m45.69,13.75c-.03-.07-.07-.14-.1-.22l-.49-.96-.33-.57c-.06-.1-.12-.21-.18-.31-1.1-1.71-3.1-2.99-5.95-4.48-4.71-2.47-9.77-4.13-14.62-6.25,1.51.96,4.3,2.24,7.82,3.86,9.35,4.29,12.23,6.15,13.85,8.94Z"/>
        <path class="cls-1" d="m42.78,9.08c-.04-.05-.09-.11-.13-.16-.03-.04-.06-.07-.09-.11-.04-.04-.07-.09-.11-.13-.35-.41-.75-.85-1.07-1.21-2.09-2.14-7.93-4.33-17.36-6.51,14.3,4.29,17.07,6.3,18.76,8.13Z"/>
        <path class="cls-1" d="m38.85,5.18c-.35-.27-.73-.55-1.06-.79-.07-.05-.13-.09-.2-.14-2.27-1.43-6.83-2.54-13.57-3.29,4.19.62,11.69,2.03,15.13,4.47-.1-.08-.2-.16-.3-.24Z"/>
        <path class="cls-1" d="m29.34.95c.56.08,1.11.18,1.65.3.96.16,1.08.2,1.81.43-.02,0-.04-.02-.06-.03-.37-.14-.86-.31-1.24-.45,0,0,0,0,0,0-.88-.28-1.91-.32-3.11-.37.06,0,.11.01.16.02-.61-.06-1.23-.09-1.86-.09-.97.05-1.1.06-2.66.18,2.49-.1,3.62-.09,5.32,0Zm-.46-.06c.11.01.22.03.33.04-.11-.01-.22-.03-.33-.04Z"/>
      </g>
    </g>
  </g>
</svg>